<svg xmlns="http://www.w3.org/2000/svg" viewBox="0 0 2075.05 1456.05"><defs><style>.cls-1,.cls-2,.cls-3,.cls-4,.cls-5,.cls-6{fill:none;stroke:#000;stroke-miterlimit:10;}.cls-1{stroke-width:40px;}.cls-2{stroke-width:25px;}.cls-3{stroke-width:20px;}.cls-4{stroke-width:28px;}.cls-5{stroke-width:10px;}.cls-6{stroke-width:15px;}.cls-7{font-size:182.99px;font-family:MyriadPro-Regular, Myriad Pro;}.cls-8{letter-spacing:-0.05em;}</style></defs><g id="Layer_2" data-name="Layer 2"><g id="Layer_3" data-name="Layer 3"><polygon class="cls-1" points="20.77 205.33 64.93 1395.73 182.05 1395.73 182.05 1244.05 498.85 1251.73 498.85 1395.73 1364.77 1416.85 1364.77 1269.01 1792.93 1280.53 1792.93 1436.05 1917.73 1436.05 1898.53 230.29 20.77 205.33"/><polyline class="cls-1" points="25.57 200.53 261.73 20.05 2045.41 33.49 2055.01 1185.49 1922.53 1431.25"/><line class="cls-1" x1="1903.33" y1="225.49" x2="2045.41" y2="33.49"/><line class="cls-2" x1="186.85" y1="1348.69" x2="503.65" y2="1356.37"/><line class="cls-2" x1="1369.57" y1="1381.33" x2="1797.73" y2="1381.33"/><circle class="cls-3" cx="251.17" cy="1303.57" r="25.92"/><circle class="cls-3" cx="354.85" cy="1303.57" r="25.92"/><circle class="cls-3" cx="452.77" cy="1303.57" r="25.92"/><circle class="cls-3" cx="1442.05" cy="1329.97" r="26.4"/><circle class="cls-3" cx="1548.85" cy="1331.17" r="27.6"/><circle class="cls-3" cx="1656.37" cy="1331.17" r="27.6"/><circle class="cls-3" cx="1750.45" cy="1331.17" r="27.6"/><circle class="cls-4" cx="898.21" cy="1313.17" r="35.52"/><circle class="cls-4" cx="1024.93" cy="1303.57" r="25.92"/><polygon class="cls-1" points="626.53 525.01 626.53 655.57 732.13 655.57 724.45 525.01 626.53 525.01"/><line class="cls-3" x1="275.17" y1="45.01" x2="229.09" y2="79.57"/><line class="cls-3" x1="200.29" y1="102.61" x2="123.49" y2="164.05"/><line class="cls-3" x1="340.45" y1="45.01" x2="263.65" y2="102.61"/><line class="cls-3" x1="240.61" y1="117.97" x2="161.89" y2="179.41"/><line class="cls-3" x1="401.89" y1="45.01" x2="315.49" y2="117.97"/><line class="cls-3" x1="302.05" y1="133.33" x2="240.61" y2="179.41"/><line class="cls-3" x1="453.73" y1="45.01" x2="401.89" y2="102.61"/><line class="cls-3" x1="386.53" y1="125.65" x2="327.01" y2="179.41"/><line class="cls-3" x1="517.09" y1="54.61" x2="461.41" y2="102.61"/><line class="cls-3" x1="440.29" y1="125.65" x2="386.53" y2="179.41"/><line class="cls-3" x1="574.69" y1="54.61" x2="517.09" y2="102.61"/><line class="cls-3" x1="499.81" y1="125.65" x2="440.29" y2="179.41"/><line class="cls-3" x1="651.49" y1="54.61" x2="593.89" y2="102.61"/><line class="cls-3" x1="574.69" y1="133.33" x2="517.09" y2="179.41"/><line class="cls-3" x1="712.93" y1="54.61" x2="651.49" y2="102.61"/><line class="cls-3" x1="626.53" y1="133.33" x2="574.69" y2="179.41"/><line class="cls-3" x1="782.05" y1="62.29" x2="732.13" y2="102.61"/><line class="cls-3" x1="701.41" y1="133.33" x2="651.49" y2="179.41"/><line class="cls-3" x1="854.05" y1="62.29" x2="802.21" y2="125.65"/><line class="cls-3" x1="770.53" y1="148.69" x2="732.13" y2="179.41"/><line class="cls-3" x1="954.85" y1="62.29" x2="900.13" y2="117.97"/><line class="cls-3" x1="871.33" y1="148.69" x2="828.13" y2="200.53"/><line class="cls-3" x1="1059.81" y1="54.61" x2="995.17" y2="102.61"/><line class="cls-3" x1="974.05" y1="133.33" x2="927.49" y2="174.61"/><line class="cls-3" x1="1127.65" y1="62.29" x2="1084.45" y2="125.65"/><path class="cls-3" d="M1182.4,523.52" transform="translate(-122.59 -374.83)"/><line class="cls-3" x1="1015.33" y1="179.41" x2="1044.71" y2="148.69"/><line class="cls-3" x1="1214.05" y1="62.29" x2="1153.57" y2="125.65"/><line class="cls-3" x1="1127.65" y1="148.69" x2="1084.45" y2="189.97"/><line class="cls-3" x1="1277.41" y1="73.81" x2="1225.57" y2="117.97"/><line class="cls-3" x1="1202.53" y1="148.69" x2="1153.57" y2="179.41"/><line class="cls-3" x1="1363.81" y1="62.29" x2="1314.85" y2="117.97"/><line class="cls-3" x1="1294.69" y1="148.69" x2="1251.49" y2="189.97"/><line class="cls-3" x1="1435.81" y1="54.61" x2="1383.97" y2="117.97"/><line class="cls-3" x1="1363.81" y1="133.33" x2="1314.85" y2="200.53"/><line class="cls-3" x1="1510.69" y1="54.61" x2="1455.97" y2="117.97"/><line class="cls-3" x1="1435.81" y1="133.33" x2="1383.97" y2="189.97"/><path class="cls-3" d="M1711,437.12c-8.64-1.92-57.6,55.68-57.6,55.68" transform="translate(-122.59 -374.83)"/><line class="cls-3" x1="1510.69" y1="133.33" x2="1455.97" y2="189.97"/><line class="cls-3" x1="1671.97" y1="54.61" x2="1623.01" y2="117.97"/><line class="cls-3" x1="1602.85" y1="148.69" x2="1559.65" y2="189.97"/><line class="cls-3" x1="1718.05" y1="62.24" x2="1689.25" y2="129.49"/><line class="cls-3" x1="1671.97" y1="161.65" x2="1647.49" y2="189.97"/><line class="cls-3" x1="1813.09" y1="62.29" x2="1761.25" y2="125.65"/><line class="cls-3" x1="1738.21" y1="148.69" x2="1703.65" y2="200.53"/><line class="cls-3" x1="1903.33" y1="62.24" x2="1839.01" y2="117.97"/><line class="cls-3" x1="1813.09" y1="148.69" x2="1787.17" y2="200.53"/><line class="cls-3" x1="1957.09" y1="62.29" x2="1903.33" y2="125.65"/><line class="cls-3" x1="1871.17" y1="148.69" x2="1839.01" y2="200.53"/><polyline class="cls-3" points="87.97 1390.93 44.77 250.45 1871.17 279.25 1893.73 1381.33 1813.09 1381.33"/><ellipse class="cls-3" cx="1964.29" cy="247.33" rx="15.84" ry="21.84"/><ellipse class="cls-3" cx="1990.21" cy="190.93" rx="10.08" ry="16.32"/><circle class="cls-3" cx="1967.17" cy="1294.45" r="15.84"/><ellipse class="cls-3" cx="1993.09" cy="1240.45" rx="10.08" ry="19.44"/><rect class="cls-5" x="1143.01" y="538.45" width="685.44" height="179.6"/><rect class="cls-5" x="1153.57" y="759.25" width="685.44" height="53.76"/><rect class="cls-5" x="1143.01" y="655.57" width="685.44" height="53.76"/><rect class="cls-5" x="1689.25" y="546.13" width="139.2" height="171.92"/><rect class="cls-5" x="1415.65" y="538.45" width="144" height="179.6"/><rect class="cls-5" x="1140.61" y="538.45" width="123.84" height="170.88"/><line class="cls-5" x1="1434.85" y1="1193.17" x2="1434.85" y2="1223.89"/><line class="cls-5" x1="1410.85" y1="1208.53" x2="1453.09" y2="1208.53"/><path class="cls-5" d="M1656.32,1568c-1,1.92,0,36.48,0,36.48" transform="translate(-122.59 -374.83)"/><line class="cls-5" x1="1511.65" y1="1211.41" x2="1548.85" y2="1211.41"/><path class="cls-5" d="M1738.88,1586.24s36.48-1.92,35.52,0" transform="translate(-122.59 -374.83)"/><line class="cls-5" x1="1713.25" y1="1210.56" x2="1750.45" y2="1211.41"/><path class="cls-5" d="M577.28,1209s-71,41.28,0,73" transform="translate(-122.59 -374.83)"/><path class="cls-5" d="M645.44,1209s-28.5,15.75-32.06,35.53c-2.14,11.87,4.7,25.19,32.06,37.43" transform="translate(-122.59 -374.83)"/><line class="cls-5" x1="522.85" y1="870.61" x2="490.78" y2="869.66"/><polyline class="cls-6" points="1912.69 1068.82 1974.37 989.65 1983.01 1294.45"/></g></g><g id="WM"><text class="cls-7" transform="translate(828.13 440.3)"><tspan class="cls-8">Y</tspan><tspan x="89.3" y="0">uyu</tspan></text></g></svg>