<svg xmlns="http://www.w3.org/2000/svg" viewBox="0 0 1408.01 2058.01"><defs><style>.cls-1,.cls-2,.cls-3,.cls-4{fill:none;stroke:#000;stroke-miterlimit:10;}.cls-1{stroke-width:40px;}.cls-2{stroke-width:10px;}.cls-3{stroke-width:5px;}.cls-4{stroke-width:9px;}.cls-5{font-size:182.99px;font-family:MyriadPro-Regular, Myriad Pro;}.cls-6{letter-spacing:-0.05em;}</style></defs><g id="Layer_4" data-name="Layer 4"><g id="Layer_5" data-name="Layer 5"><polygon class="cls-1" points="135.21 22.07 1281.45 22.07 1264.17 2017.91 135.21 2017.91 135.21 22.07"/><line class="cls-1" x1="192.81" y1="36.47" x2="195.69" y2="2017.91"/><line class="cls-1" x1="1209.45" y1="36.47" x2="1212.33" y2="2017.91"/><polyline class="cls-1" points="1281.45 4.79 1388.01 445.43 1385.13 1580.15 1281.45 2017.91"/><polyline class="cls-1" points="135.21 4.79 22.89 459.83 20.01 1585.91 123.69 2017.91"/><rect class="cls-2" x="345.45" y="410.87" width="348.48" height="227.52"/><rect class="cls-2" x="345.45" y="681.59" width="362.88" height="253.44"/><rect class="cls-2" x="345.45" y="978.23" width="362.88" height="953.28"/><rect class="cls-2" x="369.45" y="1011.35" width="120.96" height="181.92"/><rect class="cls-2" x="369.45" y="1243.19" width="120.96" height="186.24"/><rect class="cls-2" x="379.05" y="1481.27" width="111.36" height="195.84"/><rect class="cls-2" x="369.45" y="1711.67" width="120.96" height="178.56"/><rect class="cls-2" x="555.69" y="1711.67" width="115.2" height="178.56"/><rect class="cls-2" x="555.69" y="1473.59" width="115.2" height="195.84"/><rect class="cls-2" x="555.69" y="1243.19" width="115.2" height="186.24"/><rect class="cls-2" x="546.09" y="1011.35" width="117.12" height="181.92"/><rect class="cls-2" x="380.97" y="709.43" width="109.44" height="186.24"/><rect class="cls-2" x="569.13" y="709.43" width="111.36" height="186.24"/><rect class="cls-2" x="1005.92" y="509.6" width="115.2" height="147.84" transform="translate(1676.81 1113.43) rotate(180)"/><rect class="cls-2" x="369.45" y="455.99" width="107.52" height="147.84"/><rect class="cls-2" x="519.69" y="709.43" width="26.4" height="186.24"/><rect class="cls-2" x="789.93" y="920.63" width="192" height="243.84"/><circle class="cls-2" cx="831.69" cy="186.71" r="24.48"/><circle class="cls-2" cx="910.41" cy="186.71" r="24.48"/><circle class="cls-2" cx="989.13" cy="186.71" r="24.48"/><circle class="cls-2" cx="827.37" cy="266.87" r="20.16"/><circle class="cls-2" cx="906.09" cy="266.87" r="20.16"/><circle class="cls-2" cx="975.69" cy="269.27" r="22.56"/><circle class="cls-2" cx="831.69" cy="409.43" r="24.48"/><circle class="cls-2" cx="831.69" cy="480.47" r="24.48"/><circle class="cls-2" cx="827.37" cy="550.07" r="20.16"/><circle class="cls-2" cx="827.37" cy="623.99" r="20.16"/><circle class="cls-2" cx="837.15" cy="691.97" r="19.02"/><circle class="cls-2" cx="910.41" cy="409.43" r="24.48"/><circle class="cls-2" cx="906.09" cy="476.15" r="20.16"/><circle class="cls-2" cx="906.09" cy="550.07" r="20.16"/><circle class="cls-2" cx="906.09" cy="623.99" r="20.16"/><circle class="cls-2" cx="908.01" cy="687.35" r="22.08"/><line class="cls-2" x1="934.89" y1="409.43" x2="953.13" y2="409.43"/><line class="cls-2" x1="926.25" y1="476.15" x2="953.13" y2="476.15"/><line class="cls-2" x1="926.25" y1="550.07" x2="953.13" y2="550.07"/><line class="cls-2" x1="926.25" y1="623.99" x2="953.13" y2="623.99"/><line class="cls-2" x1="930.09" y1="687.35" x2="953.13" y2="687.35"/><polyline class="cls-2" points="831.69 154.55 831.69 137.27 998.25 137.27 998.25 154.55"/><polyline class="cls-2" points="827.37 246.71 827.37 229.43 998.25 229.43"/><polygon class="cls-2" points="831.69 978.23 831.69 945.59 962.73 945.59 962.73 1129.91 837.15 1129.91 837.15 1087.67 818.13 1091.51 818.13 978.23 831.69 978.23"/><rect class="cls-3" x="657.21" y="988.31" width="36" height="62.64"/><rect class="cls-3" x="356.97" y="988.31" width="34.56" height="62.64"/><rect class="cls-3" x="663.21" y="1151.03" width="30" height="61.2"/><rect class="cls-3" x="356.97" y="1148.15" width="30.96" height="64.08"/><rect class="cls-3" x="663.21" y="1223.75" width="32.88" height="59.76"/><rect class="cls-3" x="663.21" y="1383.59" width="32.88" height="62.64"/><rect class="cls-3" x="663.21" y="1457.03" width="32.88" height="54.72"/><rect class="cls-3" x="663.21" y="1625.51" width="32.88" height="54.72"/><rect class="cls-3" x="663.21" y="1688.87" width="32.88" height="55.44"/><rect class="cls-3" x="663.21" y="1851.59" width="32.88" height="56.88"/><rect class="cls-3" x="357.69" y="1851.59" width="32.4" height="56.88"/><rect class="cls-3" x="357.69" y="1688.87" width="29.52" height="55.44"/><rect class="cls-3" x="357.69" y="1619.03" width="29.52" height="58.08"/><rect class="cls-3" x="356.97" y="1457.03" width="30.96" height="54.72"/><rect class="cls-3" x="356.97" y="1377.83" width="30.96" height="65.52"/><rect class="cls-3" x="359.85" y="1223.75" width="28.08" height="59.76"/><rect class="cls-3" x="362.01" y="706.07" width="25.92" height="46.8"/><rect class="cls-3" x="362.01" y="863.03" width="29.52" height="41.76"/><rect class="cls-3" x="670.89" y="866.63" width="30.96" height="38.16"/><rect class="cls-3" x="675.21" y="703.19" width="26.64" height="38.88"/><rect class="cls-3" x="576.57" y="614.63" width="13.68" height="13.68"/><rect class="cls-3" x="459.93" y="614.63" width="13.68" height="13.68"/><rect class="cls-3" x="576.57" y="423.11" width="13.68" height="13.68"/><rect class="cls-3" x="466.77" y="419.51" width="17.28" height="17.28"/><rect class="cls-3" x="345.45" y="419.51" width="42.48" height="27.36"/><rect class="cls-3" x="345.45" y="606.71" width="61.92" height="26.64"/><rect class="cls-3" x="484.05" y="477.83" width="21.24" height="95.76"/><rect class="cls-3" x="539.13" y="477.83" width="25.92" height="91.44"/><rect class="cls-3" x="523.29" y="414.47" width="7.2" height="223.92"/><polyline class="cls-3" points="708.33 808.31 752.25 808.31 752.25 700.31"/><polyline class="cls-3" points="345.45 808.31 301.53 808.31 301.53 700.31"/><polyline class="cls-3" points="301.53 614.63 301.53 521.03 345.45 521.03"/><path class="cls-3" d="M1144.16,574.64c0-.72,54,0,54,0v93.6" transform="translate(-450.23 -53.61)"/><polyline points="1316.01 211.19 1312.17 1815.35 1281.45 1931.51 1281.45 137.27"/><path d="M1785,320.48l-9.12,1490.88,28.8-113.28s1.92-1311.36,0-1305.6" transform="translate(-450.23 -53.61)"/><polyline points="87.21 246.71 91.05 1823.03 52.65 1669.43 56.64 323.08"/><path class="cls-4" d="M1268.36,2088.08c-2.52-.72-6.12,18.72,40,18.72,0,0,40.32,4.28,43.2-18.74" transform="translate(-450.23 -53.61)"/></g></g><g id="WM"><text class="cls-5" transform="translate(752.25 1538.62)"><tspan class="cls-6">Y</tspan><tspan x="89.3" y="0">uyu</tspan></text></g></svg>