<svg xmlns="http://www.w3.org/2000/svg" viewBox="0 0 797.47 1960.96"><defs><style>.cls-1,.cls-2,.cls-3,.cls-4{fill:none;stroke:#000;stroke-miterlimit:10;}.cls-1{stroke-width:40px;}.cls-2{stroke-width:20px;}.cls-3{stroke-width:10px;}.cls-4{stroke-width:2px;}.cls-5{font-size:182.99px;font-family:MyriadPro-Regular, Myriad Pro;}.cls-6{letter-spacing:-0.05em;}</style></defs><g id="Layer_6" data-name="Layer 6"><polygon class="cls-1" points="22.91 20 20.03 1940.96 777.47 1940.96 777.47 20 22.91 20"/><line class="cls-2" x1="68.99" y1="32.96" x2="68.99" y2="1925.12"/><line class="cls-2" x1="732.83" y1="1925.12" x2="731.39" y2="20"/><rect class="cls-2" x="185.63" y="264.8" width="138.24" height="223.2"/><rect class="cls-2" x="184.19" y="668" width="136.8" height="218.88"/><polygon class="cls-2" points="568.67 1794.08 192.83 1794.08 192.83 1524.8 192.83 1038.08 568.67 1038.08 568.67 1794.08"/><line class="cls-3" x1="560.03" y1="1521.92" x2="192.83" y2="1524.8"/><line class="cls-3" x1="192.83" y1="1291.52" x2="560.03" y2="1291.52"/><line class="cls-3" x1="568.67" y1="1550.72" x2="192.83" y2="1550.72"/><line class="cls-3" x1="568.67" y1="1264.16" x2="192.83" y2="1264.16"/><rect class="cls-3" x="408.83" y="1066.88" width="135.36" height="174.24"/><rect class="cls-3" x="214.43" y="1066.88" width="129.6" height="174.24"/><rect class="cls-3" x="214.43" y="1318.88" width="138.24" height="190.08"/><rect class="cls-3" x="408.83" y="1318.88" width="129.6" height="190.08"/><rect class="cls-3" x="214.43" y="1578.08" width="138.24" height="190.08"/><rect class="cls-3" x="398.75" y="1583.84" width="139.68" height="177.12"/><rect class="cls-3" x="425.95" y="1616.96" width="50.56" height="113.76"/><rect class="cls-3" x="293.63" y="1616.96" width="38.88" height="113.76"/><rect class="cls-3" x="418.91" y="1356.32" width="54.72" height="126.72"/><rect class="cls-3" x="293.63" y="1356.32" width="38.88" height="108"/><rect class="cls-3" x="293.63" y="1102.88" width="38.88" height="108"/><rect class="cls-3" x="418.91" y="1102.88" width="43.2" height="108"/><rect class="cls-3" x="192.83" y="1205.12" width="43.2" height="59.04"/><rect class="cls-3" x="500.99" y="1205.12" width="51.84" height="51.84"/><rect class="cls-3" x="500.99" y="1066.88" width="43.2" height="43.2"/><rect class="cls-3" x="208.67" y="1066.88" width="43.92" height="43.92"/><rect class="cls-3" x="192.83" y="1455.68" width="53.28" height="53.28"/><rect class="cls-3" x="198.59" y="1318.88" width="58.32" height="58.32"/><rect class="cls-3" x="500.99" y="1318.88" width="31.68" height="58.32"/><rect class="cls-3" x="500.99" y="1464.32" width="37.44" height="50.4"/><rect class="cls-3" x="198.59" y="1566.56" width="54" height="54"/><rect class="cls-3" x="192.83" y="1714.88" width="59.76" height="46.08"/><rect class="cls-3" x="500.99" y="1583.84" width="36.72" height="36.72"/><rect class="cls-3" x="500.99" y="1714.88" width="37.44" height="46.08"/><rect class="cls-3" x="270.59" y="1583.84" width="61.92" height="18.36"/><rect class="cls-3" x="279.23" y="1746.56" width="53.28" height="21.6"/><rect class="cls-3" x="462.11" y="751.52" width="197.28" height="228.96"/><rect class="cls-3" x="500.99" y="777.44" width="115.2" height="180"/><rect class="cls-3" x="558.59" y="822.08" width="74.88" height="95.04"/><rect class="cls-3" x="633.47" y="832.16" width="25.92" height="72"/><rect class="cls-3" x="500.99" y="809.12" width="37.44" height="118.08"/><circle class="cls-3" cx="526.91" cy="682.4" r="25.92"/><circle class="cls-3" cx="495.23" cy="570.08" r="18.72"/><circle class="cls-3" cx="571.55" cy="570.08" r="18.72"/><circle class="cls-3" cx="642.11" cy="570.08" r="18.72"/><circle class="cls-3" cx="634.55" cy="491.96" r="18.36"/><circle class="cls-3" cx="571.19" cy="491.96" r="18.36"/><circle class="cls-3" cx="495.23" cy="492.32" r="18.72"/><circle class="cls-3" cx="495.23" cy="322.4" r="18.72"/><circle class="cls-3" cx="569.39" cy="324.56" r="16.56"/><circle class="cls-3" cx="638.15" cy="322.76" r="14.76"/><circle class="cls-3" cx="498.83" cy="233.84" r="15.12"/><circle class="cls-3" cx="572.27" cy="232.4" r="13.68"/><circle class="cls-3" cx="638.15" cy="233.48" r="14.76"/><rect class="cls-3" x="152.51" y="735.68" width="31.68" height="86.4"/><rect class="cls-3" x="152.51" y="324.56" width="33.12" height="95.76"/><line class="cls-4" x1="513.95" y1="233.84" x2="558.59" y2="232.4"/><line class="cls-4" x1="589.55" y1="491.96" x2="616.19" y2="491.96"/><line class="cls-4" x1="590.27" y1="570.08" x2="623.39" y2="570.08"/></g><g id="WM"><text class="cls-5" transform="translate(100.52 191.16)"><tspan class="cls-6">Y</tspan><tspan x="89.3" y="0">uyu</tspan></text></g></svg>