<svg xmlns="http://www.w3.org/2000/svg" viewBox="0 0 1474.03 1943.79"><g id="Layer_17" data-name="Layer 17"><polygon points="107.47 28.33 1453.68 20.12 1423.33 1777.94 157.38 1785.43 107.47 28.33" fill="none" stroke="#000" stroke-miterlimit="10" stroke-width="40"/><polyline points="145.47 1596.02 43.74 1590.7 40.57 1402.4 145.05 1402.4"/><polyline points="103.39 632.73 12.88 617.77 0 363.98 103.16 360.81"/><polyline points="477.09 1783.31 475.02 1916.38 583.18 1922.58 580.77 1800.72" fill="none" stroke="#000" stroke-miterlimit="10" stroke-width="40"/><polyline points="1109.29 1772.51 1113.17 1882.11 1258.04 1886.79 1250.01 1772.51" fill="none" stroke="#000" stroke-miterlimit="10" stroke-width="40"/><polyline points="960.43 1789.64 960.27 1849.07 1031.67 1847.33 1033.67 1792.12"/><path d="M1035,428.8s37.2,157.29,155.73,156.49c0,0,169.78,2.67,149-169,0,0-32.91,136-137.27,119.46C1202.43,535.76,1104.44,528.48,1035,428.8Z" transform="translate(-406.23 -124.32)"/><path d="M1353.86,670.53s-331.67-36.13-306.2,130.91,293.81,96,293.81,96" transform="translate(-406.23 -124.32)" fill="none" stroke="#000" stroke-miterlimit="10" stroke-width="40"/><circle cx="809.65" cy="1037.33" r="142.76" fill="none" stroke="#000" stroke-miterlimit="10" stroke-width="40"/><path d="M1269.78,1100s-144.37-8.2-132.12,61.67c0,0-13.53,61.55,125.68,57.54q3.84-.11,7.84-.29" transform="translate(-406.23 -124.32)" fill="none" stroke="#000" stroke-miterlimit="10" stroke-width="20"/><line x1="731.5" y1="1253.47" x2="875.79" y2="1247.45" fill="none" stroke="#000" stroke-miterlimit="10" stroke-width="40"/><line x1="1064.75" y1="146.98" x2="1057.77" y2="1659.57" fill="none" stroke="#000" stroke-miterlimit="10" stroke-width="40"/><line x1="1168.2" y1="158.08" x2="1153.89" y2="1644.11" fill="none" stroke="#000" stroke-miterlimit="10" stroke-width="40"/><line x1="1257.46" y1="140.25" x2="1232.87" y2="1672.55" fill="none" stroke="#000" stroke-miterlimit="10" stroke-width="40"/><line x1="1346.62" y1="189.88" x2="1314.37" y2="1636.99" fill="none" stroke="#000" stroke-miterlimit="10" stroke-width="40"/><line x1="517.71" y1="151.21" x2="583.18" y2="1609.6" fill="none" stroke="#000" stroke-miterlimit="10" stroke-width="40"/><line x1="415.51" y1="170.59" x2="478.39" y2="1609.6" fill="none" stroke="#000" stroke-miterlimit="10" stroke-width="40"/><line x1="301.37" y1="198.95" x2="367.7" y2="1609.6" fill="none" stroke="#000" stroke-miterlimit="10" stroke-width="40"/><line x1="194.83" y1="181.01" x2="257.54" y2="1595.66" fill="none" stroke="#000" stroke-miterlimit="10" stroke-width="40"/><circle cx="1369.24" cy="87.26" r="22.62" fill="none" stroke="#000" stroke-miterlimit="10" stroke-width="20"/><circle cx="192.3" cy="109.88" r="30.37" fill="none" stroke="#000" stroke-miterlimit="10" stroke-width="20"/><circle cx="1358.03" cy="1700.09" r="27.54" fill="none" stroke="#000" stroke-miterlimit="10" stroke-width="20"/><circle cx="253.72" cy="1700.09" r="27.54" fill="none" stroke="#000" stroke-miterlimit="10" stroke-width="20"/></g><g id="WM"><text transform="translate(588.79 1704.56)" font-size="182.99" font-family="MyriadPro-Regular, Myriad Pro"><tspan letter-spacing="-0.05em">Y</tspan><tspan x="89.3" y="0">uyu</tspan></text></g></svg>