<svg xmlns="http://www.w3.org/2000/svg" viewBox="0 0 2061.76 1649.87"><defs><style>.cls-1{fill:none;stroke:#000;stroke-miterlimit:10;stroke-width:40px;}.cls-2{font-size:182.99px;font-family:MyriadPro-Regular, Myriad Pro;}.cls-3{letter-spacing:-0.05em;}</style></defs><g id="Layer_8" data-name="Layer 8"><g id="Layer_9" data-name="Layer 9"><path class="cls-1" d="M2029.77,1328.27h146.88V516.11s-72-123.84-146.88,0Z" transform="translate(-134.89 -231.22)"/><path class="cls-1" d="M154.89,1328.27H301.77V516.11s-72-123.84-146.88,0Z" transform="translate(-134.89 -231.22)"/><line class="cls-1" x1="313.76" y1="789.93" x2="166.88" y2="789.93"/><line class="cls-1" x1="287.84" y1="1010.65" x2="166.88" y2="1010.65"/><line class="cls-1" x1="1768.16" y1="1010.65" x2="1894.88" y2="1010.65"/><line class="cls-1" x1="1730.72" y1="789.93" x2="1883.36" y2="789.93"/><path class="cls-1" d="M422.73,1095v573.12s28.8,190.08,187.2,193H1695.69s129.6,5.76,207.36-167V1095s-31.68-178.56-230.4-175.68l-1057,0S457.29,948.11,422.73,1095Z" transform="translate(-134.89 -231.22)"/><circle class="cls-1" cx="756.56" cy="1482.25" r="59.76"/><line class="cls-1" x1="892.64" y1="1482.25" x2="996.32" y2="1482.25"/><line class="cls-1" x1="1085.65" y1="1482.25" x2="1180.64" y2="1482.25"/><line class="cls-1" x1="1261.28" y1="1482.25" x2="1373.6" y2="1482.25"/><circle class="cls-1" cx="1023.7" cy="464.91" r="61.94"/><path class="cls-1" d="M981.45,579.47s187.2-236.16,360,0" transform="translate(-134.89 -231.22)"/><path class="cls-1" d="M883.53,527s262.08-363.52,555.84,0" transform="translate(-134.89 -231.22)"/><path class="cls-1" d="M791.37,474.51s337-502.4,745.92,0" transform="translate(-134.89 -231.22)"/></g></g><g id="WM"><text class="cls-2" transform="translate(816.32 1010.65)"><tspan class="cls-3">Y</tspan><tspan x="89.3" y="0">uyu</tspan></text></g></svg>