<svg xmlns="http://www.w3.org/2000/svg" viewBox="0 0 1830.09 1930.25"><defs><style>.cls-1,.cls-2,.cls-3,.cls-4{fill:none;stroke:#000;stroke-miterlimit:10;}.cls-1{stroke-width:20px;}.cls-2{stroke-width:40px;}.cls-3{stroke-width:5px;}.cls-4{stroke-width:10px;}.cls-5{font-size:182.99px;font-family:MyriadPro-Regular, Myriad Pro;}.cls-6{letter-spacing:-0.05em;}</style></defs><g id="Layer_10" data-name="Layer 10"><path class="cls-1" d="M520.16,1458.08s-59.52-97.92,142.08-159.36c0,0,376.32-124.8,743,0,0,0,170.88,73,122.88,136.32,0,0,65.28,354.24-294.72,550.08,0,0-285.12,149.76-550.08-83.52C683.36,1901.6,495.2,1737.44,520.16,1458.08Z" transform="translate(-285.28 -112.2)"/><path class="cls-1" d="M512,1459s-117.56-82.56,30.28-163.2c0,0,178.56-101.28,528.48-91.2,0,0,282.24-2.63,481,126.85,0,0,82.29,68-15,127.55" transform="translate(-285.28 -112.2)"/><path class="cls-2" d="M1536.66,1468.16s264.14-55.65,204.62-264.23L2092.64,1099s15.36-293.76-26.88-831.36L1923.68,165.92S1495.52,288.8,1489.76,288.8s-451.2-305.28-737.28-63.36c0,0-36.48,126.72-11.52,222.72" transform="translate(-285.28 -112.2)"/><path class="cls-2" d="M512,1468.16s-231.8-50.4-204.44-208.8L408.62,720.8l91.86-63.36L512,579.68s367.65-331.37,974.92-43.2L1536.66,571,1556,654.56l97.92,83.52,87.36,465.85" transform="translate(-285.28 -112.2)"/><path class="cls-1" d="M307.06,1306.67S332,1190.24,447.2,1164.32v-49l270.72-72,51.84,36.17s371.52-108.17,740.16,41.59l43.2-25.92,161.28,95-14.4,53,41.28,47.79" transform="translate(-285.28 -112.2)"/><path class="cls-1" d="M1536.66,643S1005.92,375.2,522.08,643" transform="translate(-285.28 -112.2)"/><line class="cls-1" x1="510.4" y1="447.32" x2="461.44" y2="929.56"/><line class="cls-1" x1="1186.3" y1="502.76" x2="1251.39" y2="983"/><path class="cls-1" d="M746.72,386.72s241.92-155.52,561.6-11.52l576,342.72h77.76l115.2,60.48" transform="translate(-285.28 -112.2)"/><path class="cls-3" d="M1489.76,288.8c11.52,11.52,374.4,184.32,374.4,184.32l20.16,305.28L1687,855.08" transform="translate(-285.28 -112.2)"/><line class="cls-3" x1="1254.28" y1="471.32" x2="1599.04" y2="666.2"/><polyline class="cls-3" points="1638.4 53.72 1671.05 856.28 1792.01 983"/><line class="cls-3" x1="1429.33" y1="949.48" x2="1671.04" y2="856.28"/><path class="cls-4" d="M512,1423.49l67.72,72L597,1596.32l28.8,41.53s8.64,211.91,216,315.59c0,0,181.44,72,409-31.68,0,0,146.88-66.24,193-256.32l27.89-175.68,56.59-54.72" transform="translate(-285.28 -112.2)"/><path class="cls-3" d="M956.86,1246.46s-5.66,675.3,293.86,675.3" transform="translate(-285.28 -112.2)"/><path class="cls-3" d="M1135.52,1331.49l221.76,60.35s5.76,279.36-106.56,339.84C1250.72,1731.68,1095.2,1593.69,1135.52,1331.49Z" transform="translate(-285.28 -112.2)"/><ellipse class="cls-3" cx="557.92" cy="1505.72" rx="96.48" ry="113.76"/><path class="cls-3" d="M641.61,1305.44c-5.48,2-33.06,408.73,105.11,558.72,0,0-161.28-342.81,0-587.56" transform="translate(-285.28 -112.2)"/><circle class="cls-3" cx="856.62" cy="1005.43" r="38.11"/><circle class="cls-3" cx="101.44" cy="1216.28" r="37.44"/></g><g id="WM"><text class="cls-5" transform="translate(618.76 742.88)"><tspan class="cls-6">Y</tspan><tspan x="89.3" y="0">uyu</tspan></text></g></svg>