<svg xmlns="http://www.w3.org/2000/svg" viewBox="0 0 1999.98 1094.46"><defs><style>.cls-1,.cls-2,.cls-3,.cls-4{fill:none;stroke:#000;stroke-miterlimit:10;}.cls-1{stroke-width:40px;}.cls-2{stroke-width:20px;}.cls-3{stroke-width:10px;}.cls-4{stroke-width:7px;}.cls-5{font-size:182.99px;font-family:MyriadPro-Regular, Myriad Pro;}.cls-6{letter-spacing:-0.05em;}</style></defs><g id="Layer_12" data-name="Layer 12"><path class="cls-1" d="M1949.12,1067.84S2073,1275.2,1857,1471l-273.6,119.52s-177.12,56.16-125.28-237.6" transform="translate(-190.9 -520.4)"/><path class="cls-1" d="M1507,1570.4h-38.88L559.52,1168.64S372.32,994.4,365.12,990.08s40.32-53.28,40.32-53.28l936,394.55s243.36,70.57,325.44-84.95c0,0,352.8-388.8,504-165.6v44.64l-233.28-63.76" transform="translate(-190.9 -520.4)"/><path class="cls-1" d="M2038.4,1003,594.08,546.56s-265-46.08-341.28,113.76c0,0-40.32,49-41.76,177.12L434.53,949.06" transform="translate(-190.9 -520.4)"/><path d="M1503.65,1345.2s9.15,187.76,151.71,143.12c0,0,168.48-41.76,227.52-198.72,0,0,30.24-121-23-187.2l-60.48,49s36,83.52-5.76,157c0,0-67.68,99.36-141.12,100.8,0,0-87.84,18.7-51.84-77.77" transform="translate(-190.9 -520.4)"/><path class="cls-2" d="M634.4,612.8s138.24,44.64,136.8,49" transform="translate(-190.9 -520.4)"/><path class="cls-2" d="M1334.24,838.88C1335.68,836,1520,912.32,1520,912.32" transform="translate(-190.9 -520.4)"/><path class="cls-2" d="M648.8,1099.52c4.32-1.44,64.8,38.88,64.8,38.88" transform="translate(-190.9 -520.4)"/><path class="cls-2" d="M745.28,1154.24c-1.44-1.44,113.76,50.4,113.76,50.4" transform="translate(-190.9 -520.4)"/><path class="cls-2" d="M576.8,1017.44l-97.92,59V985.76S413,992.13,402.56,1003" transform="translate(-190.9 -520.4)"/><path class="cls-2" d="M1069.28,1227.68c1.44,7.2-11.52,38.88-11.52,38.88l99.24-13-49.62,92.16,114.54,31.68,112.32-28.8" transform="translate(-190.9 -520.4)"/><circle class="cls-2" cx="1381.69" cy="1040.68" r="23.79"/><circle class="cls-3" cx="1578.64" cy="729.14" r="53.03"/><circle class="cls-3" cx="1504.78" cy="861.36" r="30.24"/><path class="cls-4" d="M1984.46,969.74s-380.34,178.49-431.71,330.39a114.39,114.39,0,0,0-4,14.78" transform="translate(-190.9 -520.4)"/><line class="cls-4" x1="22.14" y1="274.94" x2="1257.68" y2="810.95"/><path class="cls-3" d="M1633.76,889.76l-105.6,47,9.6-72-110.64,36V820.64s-102.48,32.64-108.24,30.72" transform="translate(-190.9 -520.4)"/></g><g id="WM"><text class="cls-5" transform="translate(668.14 416.4)"><tspan class="cls-6">Y</tspan><tspan x="89.3" y="0">uyu</tspan></text></g></svg>