<svg xmlns="http://www.w3.org/2000/svg" viewBox="0 0 976.66 1864.61"><defs><style>.cls-1,.cls-2{fill:none;stroke:#000;stroke-miterlimit:10;}.cls-1{stroke-width:40px;}.cls-2{stroke-width:20px;}.cls-3{font-size:182.99px;font-family:MyriadPro-Regular, Myriad Pro;}.cls-4{letter-spacing:-0.05em;}</style></defs><g id="Layer_14" data-name="Layer 14"><g id="Layer_15" data-name="Layer 15"><path class="cls-1" d="M1505.91,185.12q4.9,883.44,9.82,1766.88l83.86-106.89-9.25-1660Z" transform="translate(-642.97 -144.88)"/><polyline class="cls-1" points="842.6 40.24 20.23 40.24 40.57 1799.66 862.94 1839.97"/><rect class="cls-2" x="57.67" y="100.72" width="144" height="256.32"/><rect class="cls-2" x="57.67" y="388.72" width="144" height="279.36"/><polygon class="cls-2" points="201.67 916.8 57.67 916.8 56.71 693.04 200.71 693.04 201.67 916.8"/><rect class="cls-2" x="57.67" y="953.2" width="144" height="204.48"/><rect class="cls-2" x="74.95" y="1192.24" width="126.72" height="207.36"/><rect class="cls-2" x="74.95" y="1442.8" width="126.72" height="213.12"/><rect x="71.11" y="135.28" width="63.36" height="78.72"/><rect x="71.11" y="241.84" width="69.12" height="91.2"/><rect x="75.91" y="410.8" width="64.32" height="79.68"/><rect x="75.91" y="511.6" width="64.32" height="95.04"/><rect x="80.71" y="740.08" width="59.52" height="94.08"/><rect x="74.95" y="968.56" width="74.88" height="55.68"/><rect x="80.71" y="1055.44" width="70.08" height="63.84"/><rect x="90.31" y="1216.24" width="63.36" height="63.36"/><rect x="90.31" y="1315.12" width="63.36" height="73.92"/><rect x="90.31" y="1478.32" width="63.36" height="74.88"/><rect x="90.31" y="1582" width="69.12" height="62.4"/><path class="cls-2" d="M670.4,159.2l365.76-4.32" transform="translate(-642.97 -144.88)"/><path class="cls-2" d="M1401.92,159.2l87.84-2.88" transform="translate(-642.97 -144.88)"/><circle class="cls-2" cx="487.75" cy="375.88" r="39.96"/><circle class="cls-2" cx="492" cy="796.21" r="27.12"/></g><g id="Layer_16" data-name="Layer 16"><ellipse class="cls-1" cx="642.31" cy="1245.04" rx="91.2" ry="83.52"/><circle class="cls-1" cx="577.66" cy="1361.68" r="38.88"/></g></g><g id="WM"><text class="cls-3" transform="translate(352.05 1684)"><tspan class="cls-4">Y</tspan><tspan x="89.3" y="0">uyu</tspan></text></g></svg>